<?xml version="1.0" encoding="UTF-8" standalone="no"?>
<!-- Created with Inkscape (http://www.inkscape.org/) -->

<svg
   width="246.48581mm"
   height="29.845007mm"
   viewBox="0 0 246.48581 29.845007"
   version="1.1"
   id="svg1"
   xml:space="preserve"
   xmlns:inkscape="http://www.inkscape.org/namespaces/inkscape"
   xmlns:sodipodi="http://sodipodi.sourceforge.net/DTD/sodipodi-0.dtd"
   xmlns="http://www.w3.org/2000/svg"
   xmlns:svg="http://www.w3.org/2000/svg"><sodipodi:namedview
     id="namedview1"
     pagecolor="#ffffff"
     bordercolor="#000000"
     borderopacity="0.25"
     inkscape:showpageshadow="2"
     inkscape:pageopacity="0.0"
     inkscape:pagecheckerboard="0"
     inkscape:deskcolor="#d1d1d1"
     inkscape:document-units="mm" /><defs
     id="defs1" /><g
     inkscape:label="Layer 1"
     inkscape:groupmode="layer"
     id="layer1"
     transform="translate(-13.890667,-96.646703)"><g
       id="g10"
       transform="matrix(0.26458333,0,0,0.26458333,-154.74841,-227.59985)">&#10;	<path
   fill="#ffffff"
   d="m 1693.3487,957.33717 c -1.8,-1.4 -3.4,-2.1 -4.6,-2.1 h -28.4 v 20.8 h 28.4 c 1.5,0 3.2,-0.6 4.9,-1.7 1.8,-1.1 2.7,-3.9 2.8,-8.5 -0.2,-4.3 -1.3,-7.1 -3.1,-8.5 z"
   id="path1" />&#10;	<path
   fill="#ffffff"
   d="m 1729.6487,960.73717 c 0.4,5.1 0,9.3 -1.2,12.7 -1.9,5.4 -5.2,9.9 -9.8,13.6 -4.7,3.6 -11.4,6.5 -20.2,8.6 l 8.4,10.80003 h 48.1 l -14.9,-45.60003 h -10.4 z"
   id="path2" />&#10;	<polygon
   fill="#ffffff"
   points="751,912.2 734.8,956.9 765.9,956.9 "
   id="polygon2"
   transform="translate(804.44868,39.937168)" />&#10;	<polygon
   fill="#ffffff"
   points="1131.1,912.2 1114.9,956.9 1146,956.9 "
   id="polygon3"
   transform="translate(804.44868,39.937168)" />&#10;	<path
   fill="#ffffff"
   d="m 2073.3487,957.33717 c -1.8,-1.4 -3.4,-2.1 -4.6,-2.1 h -28.4 v 20.8 h 28.4 c 1.5,0 3.2,-0.6 4.9,-1.7 1.8,-1.1 2.7,-3.9 2.8,-8.5 -0.2,-4.3 -1.2,-7.1 -3.1,-8.5 z"
   id="path3" />&#10;	<path
   fill="#ffffff"
   d="m 1729.6487,960.73717 c 0.4,5.1 0,9.3 -1.2,12.7 -1.9,5.4 -5.2,9.9 -9.8,13.6 -4.7,3.6 -11.4,6.5 -20.2,8.6 l 8.4,10.80003 h 48.1 l -14.9,-45.60003 h -10.4 z"
   id="path4" />&#10;	&#10;	<polygon
   fill="#ffffff"
   points="751,912.2 734.8,956.9 765.9,956.9 "
   id="polygon5"
   transform="translate(804.44868,39.937168)" />&#10;	<path
   fill="#ffffff"
   d="m 1693.3487,957.33717 c -1.8,-1.4 -3.4,-2.1 -4.6,-2.1 h -28.4 v 20.8 h 28.4 c 1.5,0 3.2,-0.6 4.9,-1.7 1.8,-1.1 2.7,-3.9 2.8,-8.5 -0.2,-4.3 -1.3,-7.1 -3.1,-8.5 z"
   id="path5" />&#10;	<path
   fill="#ffffff"
   d="m 2073.3487,957.33717 c -1.8,-1.4 -3.4,-2.1 -4.6,-2.1 h -28.4 v 20.8 h 28.4 c 1.5,0 3.2,-0.6 4.9,-1.7 1.8,-1.1 2.7,-3.9 2.8,-8.5 -0.2,-4.3 -1.2,-7.1 -3.1,-8.5 z"
   id="path6" />&#10;	&#10;	&#10;	<polygon
   fill="#ffffff"
   points="751,912.2 734.8,956.9 765.9,956.9 "
   id="polygon8"
   transform="translate(804.44868,39.937168)" />&#10;	&#10;	&#10;	&#10;<path
   fill="#ffffff"
   d="m 1568.976,1259.0988 h -35.5 c -13.4,-0.4 -15.4,3.3 -5.9,11.1 16.9,14.8 25.2,29.2 24.8,43.1 -0.3,14 -8.6,22.3 -24.8,25 h -28.8 -69.7 -1.4 l -35.8,-37.3 v 37.3 h -39.2 -1.6 -41.1 l -7.1,-20.3 h -33.5 l -7.1,20.3 h -40.5 l 26,-79.2 h -11.2 l -19.6,79.2 h -36.7 l -14.3,-47.8 -11.9,47.8 h -35.5 -1.3 -69.8 l -35.8,-37.3 v 37.3 h -39.19995 -1.6 -40.9 l -7.1,-20.3 h -33.5 l -7.1,20.3 h -40.5 l 26,-79.2 h -7.4 -20.2 -15.6 v 79.2 h -36.7 v -79.2 h -10.7 -25.1 -10.4 c -13.4,-0.4 -15.4,3.3 -5.9,11.1 16.9,14.8 25.2,29.2 24.8,43.1 -0.3,14 -8.6,22.3 -24.8,25 h -98.4 v -33.6 h 62.2 c 14.7,0.4 16.6,-3.7 5.6,-12.3 -18.1,-16.7 -25.8,-32 -23.1,-45.9 2.7,-14 11.3,-20.9 25.6,-20.9 h 44.5 25.1 63 20.2 74.5 l 36.2,108.1 v -108.2 h 73.39995 c 9.1,0.8 16.5,3.2 22.3,7.2 0.4,0.3 0.8,0.6 1.3,0.9 v -8.1 h 51.7 l 15.5,48.8 13.4,-48.8 h 33.8 l 15.7,48.8 10.5,-48.8 h 11.6 24.7 70 l 36.2,108.1 v -108.1 h 73.4 c 9.1,0.8 16.5,3.2 22.3,7.2 5.8,4 10.1,9.3 12.8,15.9 2.1,10 2.2,17.7 0.3,23.1 -1.9,5.4 -5.2,9.9 -9.8,13.6 -4.7,3.6 -11.4,6.5 -20.2,8.6 l 8.4,10.8 h 52.8 3.7 c 11.3,-0.4 11.9,-4.5 1.9,-12.3 -18.1,-16.7 -25.8,-32 -23.1,-45.9 2.7,-14 11.3,-20.9 25.6,-20.9 h 69.5 v 33.5 z"
   id="path9"
   sodipodi:nodetypes="cccccccccccccccccccccccccccccccccccccccccccccccccccccscccccccccccccccccccccccscscccccccsccc"
   inkscape:export-filename="starwars.svg"
   inkscape:export-xdpi="96"
   inkscape:export-ydpi="96" /><polygon
   fill="#ffffff"
   points="1146,956.9 1131.1,912.2 1114.9,956.9 "
   id="polygon10"
   transform="translate(-224.28845,341.49834)"
   style="fill:#000000;fill-opacity:1" /><path
   fill="#ffffff"
   d="m 1040.424,1256.8804 c -1.8,-1.4 -3.4,-2.1 -4.6,-2.1 h -28.4 v 20.8 h 28.4 c 1.5,0 3.2,-0.6 4.9,-1.7 1.8,-1.1 2.7,-3.9 2.8,-8.5 -0.2,-4.3 -1.3,-7.1 -3.1,-8.5 z"
   id="path8"
   style="fill:#000000;fill-opacity:1" /><path
   fill="#ffffff"
   d="m 1074.5268,1268.6714 c 0.4,5.1 0,9.3 -1.2,12.7 -1.9,5.4 -5.2,9.9 -9.8,13.6 -4.7,3.6 -11.4,6.5 -20.2,8.6 l 8.4,10.8 h 48.1 l -14.9,-45.6 h -10.4 z"
   id="path7"
   style="fill:#000000;fill-opacity:1" /><polygon
   fill="#ffffff"
   points="1146,956.9 1131.1,912.2 1114.9,956.9 "
   id="polygon4"
   transform="translate(154.91515,344.50691)"
   style="fill:#020202;fill-opacity:1" /><path
   fill="#ffffff"
   d="m 1421.8151,1255.8726 c -1.8,-1.4 -3.4,-2.1 -4.6,-2.1 h -28.4 v 20.8 h 28.4 c 1.5,0 3.2,-0.6 4.9,-1.7 1.8,-1.1 2.7,-3.9 2.8,-8.5 -0.2,-4.3 -1.2,-7.1 -3.1,-8.5 z"
   id="path10"
   style="fill:#000000;fill-opacity:1" /></g></g></svg>
